<svg xmlns="http://www.w3.org/2000/svg" viewBox="0 0 800 200">
  <defs>
    <linearGradient id="winterGradient" x1="0%" y1="0%" x2="100%" y2="100%">
      <stop offset="0%" style="stop-color:#0f172a;stop-opacity:1" />
      <stop offset="50%" style="stop-color:#1e293b;stop-opacity:1" />
      <stop offset="100%" style="stop-color:#334155;stop-opacity:1" />
    </linearGradient>
    <linearGradient id="textGradient" x1="0%" y1="0%" x2="100%" y2="0%">
      <stop offset="0%" style="stop-color:#e2e8f0" />
      <stop offset="50%" style="stop-color:#f8fafc" />
      <stop offset="100%" style="stop-color:#cbd5e1" />
    </linearGradient>
    <filter id="glow" x="-50%" y="-50%" width="200%" height="200%">
      <feGaussianBlur stdDeviation="2" result="coloredBlur"/>
      <feMerge>
        <feMergeNode in="coloredBlur"/>
        <feMergeNode in="SourceGraphic"/>
      </feMerge>
    </filter>
  </defs>
  
  <!-- Background -->
  <rect width="800" height="200" fill="url(#winterGradient)"/>
  
  <!-- Snow particles -->
  <circle cx="50" cy="30" r="2" fill="#e2e8f0" opacity="0.6"/>
  <circle cx="120" cy="60" r="1.5" fill="#e2e8f0" opacity="0.4"/>
  <circle cx="200" cy="25" r="2" fill="#e2e8f0" opacity="0.5"/>
  <circle cx="280" cy="70" r="1" fill="#e2e8f0" opacity="0.3"/>
  <circle cx="350" cy="40" r="2" fill="#e2e8f0" opacity="0.6"/>
  <circle cx="420" cy="20" r="1.5" fill="#e2e8f0" opacity="0.4"/>
  <circle cx="500" cy="55" r="2" fill="#e2e8f0" opacity="0.5"/>
  <circle cx="580" cy="35" r="1" fill="#e2e8f0" opacity="0.3"/>
  <circle cx="650" cy="65" r="2" fill="#e2e8f0" opacity="0.6"/>
  <circle cx="720" cy="25" r="1.5" fill="#e2e8f0" opacity="0.4"/>
  <circle cx="780" cy="50" r="2" fill="#e2e8f0" opacity="0.5"/>
  
  <circle cx="30" cy="150" r="1.5" fill="#e2e8f0" opacity="0.4"/>
  <circle cx="100" cy="170" r="2" fill="#e2e8f0" opacity="0.5"/>
  <circle cx="180" cy="140" r="1" fill="#e2e8f0" opacity="0.3"/>
  <circle cx="250" cy="180" r="2" fill="#e2e8f0" opacity="0.6"/>
  <circle cx="330" cy="160" r="1.5" fill="#e2e8f0" opacity="0.4"/>
  <circle cx="450" cy="175" r="2" fill="#e2e8f0" opacity="0.5"/>
  <circle cx="550" cy="145" r="1" fill="#e2e8f0" opacity="0.3"/>
  <circle cx="620" cy="185" r="2" fill="#e2e8f0" opacity="0.6"/>
  <circle cx="700" cy="155" r="1.5" fill="#e2e8f0" opacity="0.4"/>
  <circle cx="770" cy="175" r="2" fill="#e2e8f0" opacity="0.5"/>
  
  <!-- Main text -->
  <text x="400" y="85" text-anchor="middle" font-family="Georgia, serif" font-size="42" font-style="italic" fill="url(#textGradient)" filter="url(#glow)">
    "Agentic Coding is Coming"
  </text>
  
  <!-- Subtext -->
  <text x="400" y="130" text-anchor="middle" font-family="system-ui, -apple-system, sans-serif" font-size="18" fill="#94a3b8" letter-spacing="4">
    MINIMAL RULES • LLM DISCOVERS • KNOWLEDGE PERSISTS
  </text>
  
  <!-- Decorative line -->
  <line x1="200" y1="155" x2="600" y2="155" stroke="#475569" stroke-width="1" opacity="0.5"/>
  
  <!-- Bottom tagline -->
  <text x="400" y="180" text-anchor="middle" font-family="system-ui, -apple-system, sans-serif" font-size="14" fill="#64748b">
    Stop teaching the teacher. Let it research.
  </text>
</svg>
